<svg version="1.1" id="Layer_1" xmlns="http://www.w3.org/2000/svg" xmlns:xlink="http://www.w3.org/1999/xlink" x="0px" y="0px"
	 width="100%" viewBox="0 0 598 417" enable-background="new 0 0 598 417" xml:space="preserve">
<path fill="#000000" opacity="1.000000" stroke="none" 
	d="
M562.000000,418.000000 
	C374.666718,418.000000 187.833420,418.000000 1.000100,418.000000 
	C1.000067,279.000092 1.000067,140.000153 1.000033,1.000175 
	C200.333206,1.000117 399.666412,1.000117 598.999756,1.000058 
	C598.999817,139.999832 598.999817,278.999664 598.999878,417.999756 
	C586.833313,418.000000 574.666687,418.000000 562.000000,418.000000 
M154.499435,229.002319 
	C160.783249,229.002319 167.067078,229.002319 173.350891,229.002319 
	C173.343124,228.777573 173.335358,228.552841 173.327591,228.328094 
	C140.107620,228.328094 106.887657,228.328094 73.667686,228.328094 
	C73.667854,228.552841 73.668022,228.777573 73.668190,229.002319 
	C100.278694,229.002319 126.889191,229.002319 154.499435,229.002319 
M269.500031,246.996902 
	C256.573486,246.996902 243.646912,246.996902 230.720352,246.996902 
	C230.723969,247.231598 230.727600,247.466293 230.731216,247.700989 
	C251.933014,247.700989 273.134827,247.700989 294.336639,247.700989 
	C294.337280,247.462753 294.337921,247.224518 294.338562,246.986282 
	C286.392365,246.986282 278.446167,246.986282 269.500031,246.996902 
M304.729095,246.993439 
	C303.028687,246.993439 301.328278,246.993439 299.627869,246.993439 
	C299.632202,247.235657 299.636536,247.477875 299.640869,247.720093 
	C319.228851,247.720093 338.816803,247.720093 358.404755,247.720093 
	C358.405304,247.481400 358.405853,247.242691 358.406403,247.003998 
	C340.829620,247.003998 323.252869,247.003998 304.729095,246.993439 
M133.505737,218.002289 
	C128.726151,218.002289 123.946564,218.002289 119.166977,218.002289 
	C119.178055,218.225510 119.189133,218.448715 119.200211,218.671936 
	C138.077637,218.671936 156.955063,218.671936 175.832489,218.671936 
	C175.832062,218.449234 175.831619,218.226532 175.831192,218.003830 
	C162.055283,218.003830 148.279388,218.003830 133.505737,218.002289 
M303.510223,213.036438 
	C298.932129,213.036438 294.354034,213.036438 289.775940,213.036438 
	C289.779053,213.251862 289.782135,213.467285 289.785248,213.682709 
	C305.285248,213.682709 320.785217,213.682709 336.285217,213.682709 
	C336.285431,213.458786 336.285675,213.234879 336.285889,213.010956 
	C325.692749,213.010956 315.099640,213.010956 303.510223,213.036438 
M399.499603,247.011551 
	C391.220428,247.011551 382.941254,247.011551 374.662109,247.011551 
	C374.666534,247.239532 374.670990,247.467514 374.675415,247.695496 
	C389.557770,247.695496 404.440094,247.695496 419.322418,247.695496 
	C419.323212,247.468399 419.323975,247.241302 419.324768,247.014206 
	C413.049622,247.014206 406.774506,247.014206 399.499603,247.011551 
M307.721680,67.001846 
	C319.628815,67.001846 331.535980,67.001846 343.443115,67.001846 
	C343.441711,66.755562 343.440277,66.509285 343.438873,66.263000 
	C329.798645,66.263000 316.158417,66.263000 302.518158,66.263000 
	C302.516815,66.510872 302.515442,66.758743 302.514069,67.006615 
	C303.939362,67.006615 305.364624,67.006615 307.721680,67.001846 
M522.437866,335.988098 
	C516.198730,335.988098 509.959595,335.988098 503.720490,335.988098 
	C503.729218,336.215302 503.737976,336.442535 503.746735,336.669739 
	C512.926270,336.669739 522.105835,336.669739 531.285339,336.669739 
	C531.286621,336.440582 531.287903,336.211395 531.289124,335.982239 
	C528.663574,335.982239 526.038025,335.982239 522.437866,335.988098 
M264.043335,319.534363 
	C264.043335,316.150848 264.043335,312.767365 264.043335,309.383850 
	C263.800293,309.389435 263.557251,309.395050 263.314209,309.400665 
	C263.314209,318.370697 263.314209,327.340759 263.314209,336.310822 
	C263.557434,336.311432 263.800629,336.312042 264.043854,336.312653 
	C264.043854,331.049500 264.043854,325.786377 264.043335,319.534363 
M403.505554,337.005310 
	C408.103180,337.005310 412.700806,337.005310 417.298462,337.005310 
	C417.288055,336.772064 417.277679,336.538788 417.267303,336.305542 
	C408.415527,336.305542 399.563751,336.305542 390.712006,336.305542 
	C390.710724,336.537292 390.709442,336.769012 390.708160,337.000763 
	C394.643951,337.000763 398.579712,337.000763 403.505554,337.005310 
M425.823059,335.994690 
	C424.694580,336.064178 423.566101,336.133667 422.437622,336.203125 
	C422.443359,336.367676 422.449127,336.532196 422.454865,336.696716 
	C431.356354,336.696716 440.257843,336.696716 449.159332,336.696716 
	C449.160370,336.463470 449.161377,336.230225 449.162415,335.996979 
	C441.693542,335.996979 434.224701,335.996979 425.823059,335.994690 
M406.450684,310.004913 
	C409.571777,310.004913 412.692871,310.004913 415.813965,310.004913 
	C415.806061,309.778259 415.798187,309.551636 415.790314,309.324982 
	C407.582458,309.324982 399.374603,309.324982 391.166748,309.324982 
	C391.166504,309.551788 391.166260,309.778564 391.166046,310.005371 
	C395.933655,310.005371 400.701294,310.005371 406.450684,310.004913 
M372.509155,309.998779 
	C376.617035,309.998779 380.724915,309.998779 384.832764,309.998779 
	C384.823395,309.774811 384.814056,309.550873 384.804688,309.326904 
	C376.937225,309.326904 369.069763,309.326904 361.202301,309.326904 
	C361.201538,309.551147 361.200775,309.775421 361.200012,309.999664 
	C364.642456,309.999664 368.084869,309.999664 372.509155,309.998779 
M467.011505,316.699860 
	C467.011505,314.764374 467.011505,312.828857 467.011505,310.893372 
	C466.759064,310.906006 466.506653,310.918640 466.254211,310.931305 
	C466.254211,319.088013 466.254211,327.244720 466.254211,335.401459 
	C466.496307,335.402527 466.738373,335.403564 466.980469,335.404633 
	C466.980469,329.486450 466.980469,323.568237 467.011505,316.699860 
M264.206787,192.009186 
	C271.631989,192.009186 279.057190,192.009186 286.482391,192.009186 
	C278.716949,191.170166 270.956116,191.168335 263.195343,191.192673 
	C263.106049,191.192947 262.977997,191.527039 262.952942,191.716537 
	C262.945312,191.774384 263.222198,191.869843 264.206787,192.009186 
M504.008331,314.789795 
	C504.008331,313.178619 504.008331,311.567444 504.008331,309.956268 
	C503.755737,309.958038 503.503174,309.959839 503.250580,309.961609 
	C503.250580,317.638519 503.250580,325.315430 503.250580,332.992340 
	C503.502991,332.996307 503.755402,333.000305 504.007812,333.004303 
	C504.007812,327.242096 504.007812,321.479919 504.008331,314.789795 
M527.622925,309.992523 
	C528.085632,309.869690 528.548401,309.746857 530.350464,309.268494 
	C522.012390,309.268494 515.035400,309.268494 508.058472,309.268494 
	C508.055145,309.511475 508.051819,309.754486 508.048492,309.997467 
	C514.300171,309.997467 520.551819,309.997467 527.622925,309.992523 
z"/>
<path fill="#FFFFFF" opacity="1.000000" stroke="none" 
	d="
M153.999573,229.002319 
	C126.889191,229.002319 100.278694,229.002319 73.668190,229.002319 
	C73.668022,228.777573 73.667854,228.552841 73.667686,228.328094 
	C106.887657,228.328094 140.107620,228.328094 173.327591,228.328094 
	C173.335358,228.552841 173.343124,228.777573 173.350891,229.002319 
	C167.067078,229.002319 160.783249,229.002319 153.999573,229.002319 
z"/>
<path fill="#9B9B9B" opacity="1.000000" stroke="none" 
	d="
M270.000000,246.991592 
	C278.446167,246.986282 286.392365,246.986282 294.338562,246.986282 
	C294.337921,247.224518 294.337280,247.462753 294.336639,247.700989 
	C273.134827,247.700989 251.933014,247.700989 230.731216,247.700989 
	C230.727600,247.466293 230.723969,247.231598 230.720352,246.996902 
	C243.646912,246.996902 256.573486,246.996902 270.000000,246.991592 
z"/>
<path fill="#A1A1A1" opacity="1.000000" stroke="none" 
	d="
M305.202576,246.998718 
	C323.252869,247.003998 340.829620,247.003998 358.406403,247.003998 
	C358.405853,247.242691 358.405304,247.481400 358.404755,247.720093 
	C338.816803,247.720093 319.228851,247.720093 299.640869,247.720093 
	C299.636536,247.477875 299.632202,247.235657 299.627869,246.993439 
	C301.328278,246.993439 303.028687,246.993439 305.202576,246.998718 
z"/>
<path fill="#2B2B2B" opacity="1.000000" stroke="none" 
	d="
M134.004608,218.003052 
	C148.279388,218.003830 162.055283,218.003830 175.831192,218.003830 
	C175.831619,218.226532 175.832062,218.449234 175.832489,218.671936 
	C156.955063,218.671936 138.077637,218.671936 119.200211,218.671936 
	C119.189133,218.448715 119.178055,218.225510 119.166977,218.002289 
	C123.946564,218.002289 128.726151,218.002289 134.004608,218.003052 
z"/>
<path fill="#9B9B9B" opacity="1.000000" stroke="none" 
	d="
M304.008362,213.023697 
	C315.099640,213.010956 325.692749,213.010956 336.285889,213.010956 
	C336.285675,213.234879 336.285431,213.458786 336.285217,213.682709 
	C320.785217,213.682709 305.285248,213.682709 289.785248,213.682709 
	C289.782135,213.467285 289.779053,213.251862 289.775940,213.036438 
	C294.354034,213.036438 298.932129,213.036438 304.008362,213.023697 
z"/>
<path fill="#A1A1A1" opacity="1.000000" stroke="none" 
	d="
M399.999481,247.012878 
	C406.774506,247.014206 413.049622,247.014206 419.324768,247.014206 
	C419.323975,247.241302 419.323212,247.468399 419.322418,247.695496 
	C404.440094,247.695496 389.557770,247.695496 374.675415,247.695496 
	C374.670990,247.467514 374.666534,247.239532 374.662109,247.011551 
	C382.941254,247.011551 391.220428,247.011551 399.999481,247.012878 
z"/>
<path fill="#5D5D5D" opacity="1.000000" stroke="none" 
	d="
M307.255798,67.004227 
	C305.364624,67.006615 303.939362,67.006615 302.514069,67.006615 
	C302.515442,66.758743 302.516815,66.510872 302.518158,66.263000 
	C316.158417,66.263000 329.798645,66.263000 343.438873,66.263000 
	C343.440277,66.509285 343.441711,66.755562 343.443115,67.001846 
	C331.535980,67.001846 319.628815,67.001846 307.255798,67.004227 
z"/>
<path fill="#AFAFAF" opacity="1.000000" stroke="none" 
	d="
M522.925171,335.985168 
	C526.038025,335.982239 528.663574,335.982239 531.289124,335.982239 
	C531.287903,336.211395 531.286621,336.440582 531.285339,336.669739 
	C522.105835,336.669739 512.926270,336.669739 503.746735,336.669739 
	C503.737976,336.442535 503.729218,336.215302 503.720490,335.988098 
	C509.959595,335.988098 516.198730,335.988098 522.925171,335.985168 
z"/>
<path fill="#AFAFAF" opacity="1.000000" stroke="none" 
	d="
M264.043579,320.028809 
	C264.043854,325.786377 264.043854,331.049500 264.043854,336.312653 
	C263.800629,336.312042 263.557434,336.311432 263.314209,336.310822 
	C263.314209,327.340759 263.314209,318.370697 263.314209,309.400665 
	C263.557251,309.395050 263.800293,309.389435 264.043335,309.383850 
	C264.043335,312.767365 264.043335,316.150848 264.043579,320.028809 
z"/>
<path fill="#AFAFAF" opacity="1.000000" stroke="none" 
	d="
M403.010498,337.003052 
	C398.579712,337.000763 394.643951,337.000763 390.708160,337.000763 
	C390.709442,336.769012 390.710724,336.537292 390.712006,336.305542 
	C399.563751,336.305542 408.415527,336.305542 417.267303,336.305542 
	C417.277679,336.538788 417.288055,336.772064 417.298462,337.005310 
	C412.700806,337.005310 408.103180,337.005310 403.010498,337.003052 
z"/>
<path fill="#AFAFAF" opacity="1.000000" stroke="none" 
	d="
M426.289429,335.995850 
	C434.224701,335.996979 441.693542,335.996979 449.162415,335.996979 
	C449.161377,336.230225 449.160370,336.463470 449.159332,336.696716 
	C440.257843,336.696716 431.356354,336.696716 422.454865,336.696716 
	C422.449127,336.532196 422.443359,336.367676 422.437622,336.203125 
	C423.566101,336.133667 424.694580,336.064178 426.289429,335.995850 
z"/>
<path fill="#171717" opacity="1.000000" stroke="none" 
	d="
M405.959808,310.005127 
	C400.701294,310.005371 395.933655,310.005371 391.166046,310.005371 
	C391.166260,309.778564 391.166504,309.551788 391.166748,309.324982 
	C399.374603,309.324982 407.582458,309.324982 415.790314,309.324982 
	C415.798187,309.551636 415.806061,309.778259 415.813965,310.004913 
	C412.692871,310.004913 409.571777,310.004913 405.959808,310.005127 
z"/>
<path fill="#171717" opacity="1.000000" stroke="none" 
	d="
M372.018250,309.999207 
	C368.084869,309.999664 364.642456,309.999664 361.200012,309.999664 
	C361.200775,309.775421 361.201538,309.551147 361.202301,309.326904 
	C369.069763,309.326904 376.937225,309.326904 384.804688,309.326904 
	C384.814056,309.550873 384.823395,309.774811 384.832764,309.998779 
	C380.724915,309.998779 376.617035,309.998779 372.018250,309.999207 
z"/>
<path fill="#747474" opacity="1.000000" stroke="none" 
	d="
M466.995972,317.174957 
	C466.980469,323.568237 466.980469,329.486450 466.980469,335.404633 
	C466.738373,335.403564 466.496307,335.402527 466.254211,335.401459 
	C466.254211,327.244720 466.254211,319.088013 466.254211,310.931305 
	C466.506653,310.918640 466.759064,310.906006 467.011505,310.893372 
	C467.011505,312.828857 467.011505,314.764374 466.995972,317.174957 
z"/>
<path fill="#9B9B9B" opacity="1.000000" stroke="none" 
	d="
M263.787781,191.978638 
	C263.222198,191.869843 262.945312,191.774384 262.952942,191.716537 
	C262.977997,191.527039 263.106049,191.192947 263.195343,191.192673 
	C270.956116,191.168335 278.716949,191.170166 286.482391,192.009186 
	C279.057190,192.009186 271.631989,192.009186 263.787781,191.978638 
z"/>
<path fill="#171717" opacity="1.000000" stroke="none" 
	d="
M504.008057,315.253754 
	C504.007812,321.479919 504.007812,327.242096 504.007812,333.004303 
	C503.755402,333.000305 503.502991,332.996307 503.250580,332.992340 
	C503.250580,325.315430 503.250580,317.638519 503.250580,309.961609 
	C503.503174,309.959839 503.755737,309.958038 504.008331,309.956268 
	C504.008331,311.567444 504.008331,313.178619 504.008057,315.253754 
z"/>
<path fill="#171717" opacity="1.000000" stroke="none" 
	d="
M527.213196,309.994995 
	C520.551819,309.997467 514.300171,309.997467 508.048492,309.997467 
	C508.051819,309.754486 508.055145,309.511475 508.058472,309.268494 
	C515.035400,309.268494 522.012390,309.268494 530.350464,309.268494 
	C528.548401,309.746857 528.085632,309.869690 527.213196,309.994995 
z"/>
</svg>