<svg version="1.1" id="Layer_1" xmlns="http://www.w3.org/2000/svg" xmlns:xlink="http://www.w3.org/1999/xlink" x="0px" y="0px"
	 width="100%" viewBox="0 0 1474 1030" enable-background="new 0 0 1474 1030" xml:space="preserve">
<path fill="#FDFDFD" opacity="1.000000" stroke="none" 
	d="
M1076.000000,1031.000000 
	C717.333313,1031.000000 359.166656,1031.000000 1.000000,1031.000000 
	C1.000000,687.666687 1.000000,344.333344 1.000000,1.000000 
	C492.333344,1.000000 983.666687,1.000000 1475.000000,1.000000 
	C1475.000000,344.333344 1475.000000,687.666687 1475.000000,1031.000000 
	C1342.166626,1031.000000 1209.333374,1031.000000 1076.000000,1031.000000 
M627.475037,359.122162 
	C615.917358,356.290070 604.057312,354.324615 592.872986,350.422485 
	C576.145569,344.586456 560.808411,335.868958 549.626770,321.586517 
	C540.497253,309.925323 536.512329,297.016357 541.907837,282.226990 
	C545.587402,272.141266 552.672363,264.868164 560.525391,258.167694 
	C575.657532,245.256302 593.362061,236.761490 611.681274,229.646072 
	C635.575500,220.365295 660.637268,215.182098 685.884338,211.583511 
	C704.784851,208.889526 723.953369,207.753204 743.046265,206.803360 
	C775.061462,205.210632 806.882568,208.102554 838.441956,213.309357 
	C864.277222,217.571747 889.663208,223.859726 914.185547,233.252350 
	C936.256104,241.705872 956.907593,252.679230 974.808716,268.298950 
	C990.539124,282.024689 1001.503845,298.728027 1003.920959,319.852844 
	C1006.454285,341.994263 999.514526,361.590363 986.340576,379.282928 
	C972.977600,397.229492 955.292969,409.925385 936.066345,420.597931 
	C907.453979,436.480469 876.465698,446.306671 844.909912,454.101166 
	C826.421570,458.667969 807.536743,461.858002 788.678589,464.639282 
	C766.673584,467.884644 744.565369,470.943970 722.391174,472.414490 
	C682.843079,475.037109 643.227783,475.244568 603.831787,469.671234 
	C585.451233,467.070953 566.996582,464.669067 548.839233,460.905212 
	C529.575378,456.911987 510.723236,451.200745 493.352997,441.425812 
	C488.795715,438.861237 483.818207,436.766541 478.772827,435.474915 
	C476.587738,434.915497 472.417511,436.256439 471.539124,437.963837 
	C470.497437,439.988647 471.786804,443.409485 472.555847,446.084442 
	C472.928894,447.381897 474.390442,448.384949 475.408112,449.475616 
	C485.519592,460.312592 481.996552,470.390625 470.243256,476.381714 
	C463.824249,479.653778 457.045654,482.472778 450.132233,484.466156 
	C438.377655,487.855377 426.456573,490.754089 414.482483,493.274963 
	C395.510345,497.269135 376.474304,500.990082 357.392731,504.423187 
	C345.148926,506.626007 332.769623,508.069855 320.460388,509.916077 
	C303.378082,512.478149 286.311401,515.144775 269.225342,517.680908 
	C252.654343,520.140503 236.047119,522.365112 219.504181,524.997070 
	C216.183945,525.525391 212.743393,526.924438 209.964279,528.813416 
	C206.522720,531.152771 207.124207,534.465820 211.066330,535.803528 
	C213.826569,536.740112 216.886993,537.183655 219.813019,537.182251 
	C281.974457,537.152649 344.135956,537.075256 406.297180,536.903259 
	C436.957520,536.818420 467.472717,538.303528 497.697052,543.916443 
	C517.875732,547.663879 537.074036,554.225403 554.424866,565.145081 
	C565.463623,572.092285 575.664124,580.391357 586.095581,588.276001 
	C591.892456,592.657593 596.112244,593.356262 599.952637,589.892761 
	C603.516907,586.678284 603.557129,581.195190 599.885315,575.878113 
	C597.247131,572.057678 594.304749,568.445190 591.711548,564.596191 
	C586.448364,556.783997 580.646545,549.230042 576.319946,540.917358 
	C570.570129,529.870422 576.500793,520.510864 588.873413,518.897766 
	C603.245056,517.023926 617.464600,516.833740 631.944092,518.570496 
	C649.090942,520.627075 666.417847,521.266907 683.683105,522.224304 
	C696.310913,522.924561 708.966248,523.539551 721.607544,523.505615 
	C757.553650,523.409180 793.498657,522.931274 829.444519,522.660950 
	C855.111206,522.467896 880.547974,519.737793 905.826355,515.552795 
	C925.624817,512.275085 945.493286,509.186859 965.057190,504.796021 
	C982.273987,500.931976 999.192444,495.644806 1016.100159,490.516418 
	C1051.460693,479.791107 1085.234619,465.462769 1116.355225,445.282104 
	C1137.528320,431.552155 1156.573853,415.476166 1170.704102,394.347290 
	C1180.946411,379.031982 1187.722534,362.236023 1188.127197,343.506683 
	C1188.773560,313.600616 1175.982422,289.343811 1155.749634,268.392273 
	C1124.608398,236.144699 1085.639893,216.619583 1044.184570,202.074875 
	C1020.049377,193.606934 995.043335,187.222473 970.017151,181.803253 
	C944.267456,176.227371 918.117737,172.140045 891.954956,168.940186 
	C869.546875,166.199554 846.893311,164.932053 824.311462,164.271774 
	C790.357056,163.278992 756.397095,163.621262 722.466980,166.334427 
	C695.772888,168.468964 669.183594,171.039536 642.958618,176.611389 
	C626.475220,180.113541 609.831604,183.027985 593.567749,187.361511 
	C564.374939,195.139938 535.835754,204.975204 508.947296,218.970108 
	C485.154236,231.353943 462.790375,245.676620 447.039032,268.225800 
	C438.309570,280.722595 434.021454,294.394836 435.553284,309.803009 
	C436.719696,321.535614 442.250824,331.169556 449.435333,339.977875 
	C463.795471,357.583740 482.632477,369.066071 502.953979,378.462006 
	C521.013489,386.812134 539.664673,393.584930 559.092651,397.742706 
	C580.660217,402.358337 602.345459,406.565247 624.133850,409.958130 
	C638.224915,412.152405 652.605225,412.441589 666.833801,413.813477 
	C680.891235,415.168854 694.888672,417.308105 708.969604,418.221863 
	C735.008484,419.911713 760.686584,417.486938 785.945251,410.456146 
	C807.699036,404.400909 826.603333,393.938232 841.832581,377.093109 
	C849.837769,368.238586 855.162109,358.048004 856.237305,346.143372 
	C857.764954,329.228821 849.615967,316.795959 836.494629,307.233063 
	C813.896362,290.763306 787.526489,286.074890 760.561646,284.195343 
	C750.710571,283.508728 740.695557,285.101776 730.761780,285.752808 
	C729.326233,285.846893 727.926819,286.491882 726.073486,287.002350 
	C729.145752,289.164795 731.952759,290.864746 734.439575,292.947052 
	C740.007446,297.609314 740.434998,301.381073 734.981323,306.113831 
	C721.932312,317.437897 706.851990,322.466553 689.506531,319.061676 
	C682.990540,317.782593 680.299744,312.327667 683.127991,306.296722 
	C683.665100,305.151398 684.203003,304.006470 684.740601,302.861359 
	C684.290527,302.461060 683.840393,302.060760 683.390320,301.660461 
	C673.389954,308.268280 662.964966,314.325409 653.498169,321.625214 
	C642.022095,330.474365 633.321289,341.587677 631.146179,356.666656 
	C631.008118,357.623810 629.337646,358.359924 627.475037,359.122162 
M309.501099,733.468994 
	C330.920380,733.468994 352.339661,733.468994 374.449921,733.468994 
	C373.184113,732.807190 372.515198,732.324524 371.768311,732.087585 
	C364.070557,729.645996 356.218323,727.615967 348.687469,724.742004 
	C337.990570,720.659851 327.501556,715.973267 321.020966,705.690613 
	C319.971466,704.025452 319.400269,702.058838 318.393829,699.737549 
	C329.337250,699.737549 339.283752,699.693787 349.229797,699.745483 
	C382.975006,699.920837 416.683167,701.220642 450.219513,694.821777 
	C468.699005,691.295776 486.583069,686.501770 503.804230,679.167053 
	C522.939270,671.017212 539.370789,659.314636 550.683777,641.421936 
	C555.897583,633.175842 558.417908,624.065002 556.671509,614.369080 
	C554.416016,601.845703 545.851074,593.770447 535.648010,587.357605 
	C522.143433,578.869812 507.041779,574.344971 491.515778,571.687927 
	C467.536987,567.584473 443.274902,566.294495 418.961090,566.279114 
	C338.974091,566.228394 258.987091,566.229431 179.000061,566.234009 
	C178.151398,566.234070 177.302765,566.549438 175.354980,566.935303 
	C177.178650,567.870911 177.941147,568.420349 178.791809,568.673218 
	C185.135910,570.558777 191.541733,572.247314 197.842682,574.264709 
	C206.408768,577.007324 213.645935,581.864014 218.931519,589.189026 
	C224.743332,597.243286 222.241043,605.744507 219.274994,613.925232 
	C211.172470,636.272766 202.953262,658.580566 194.498749,680.796936 
	C189.796478,693.153381 183.338882,704.253723 172.139893,712.294006 
	C159.719070,721.211548 146.183777,727.141907 131.355026,730.430664 
	C128.959961,730.961914 126.643356,731.846924 124.290489,732.568420 
	C124.376045,732.867371 124.461601,733.166382 124.547157,733.465332 
	C185.865051,733.465332 247.182953,733.465332 309.501099,733.468994 
M1058.959106,631.491577 
	C1055.466431,633.377380 1051.855347,635.074646 1048.502319,637.182678 
	C1036.026978,645.026245 1024.677124,654.004211 1018.588318,668.064087 
	C1013.735107,679.270691 1013.610474,690.286499 1021.724792,699.891418 
	C1026.346802,705.362488 1031.825562,710.526550 1037.871826,714.302124 
	C1059.062866,727.534363 1083.097656,732.162476 1107.435669,734.156799 
	C1139.843262,736.812256 1172.216797,736.128479 1204.388306,729.942444 
	C1225.117188,725.956665 1245.307007,720.652527 1264.137817,711.035278 
	C1277.469116,704.226746 1290.050659,696.253540 1299.234131,683.979431 
	C1308.357300,671.786377 1309.589478,658.083130 1300.774658,646.196899 
	C1295.982056,639.734131 1289.245850,634.244446 1282.395996,629.864441 
	C1263.021484,617.475525 1240.874756,612.742676 1218.504517,610.043823 
	C1199.780762,607.784973 1180.976685,606.246521 1161.905518,607.510864 
	C1140.611206,608.922485 1119.490479,611.053955 1098.997681,616.794495 
	C1085.581787,620.552490 1072.715576,626.272522 1058.959106,631.491577 
M865.722961,690.893127 
	C874.399292,704.823669 873.277222,718.660767 864.684204,732.783813 
	C909.972168,732.783813 954.617065,732.783813 1001.065369,732.783813 
	C994.390564,723.738281 989.193787,715.219604 982.573975,708.007202 
	C964.196167,687.984436 939.998535,678.350769 914.376709,671.636780 
	C909.258667,670.295593 904.119995,669.033447 898.990845,667.734863 
	C898.902832,667.107422 898.814758,666.479919 898.726746,665.852478 
	C946.285095,656.547791 991.788269,642.282227 1031.403442,612.244995 
	C1030.161987,611.966370 1029.405884,611.646179 1028.650879,611.648865 
	C993.829102,611.774292 959.007446,611.950195 924.185608,612.035828 
	C921.405029,612.042664 919.839600,612.989441 919.225586,615.729614 
	C917.285217,624.388306 911.933472,630.931091 905.413269,636.427124 
	C893.758301,646.251282 879.918091,651.677246 865.148560,654.606812 
	C857.978882,656.028992 850.601807,656.405090 842.663513,657.331238 
	C848.421631,635.054077 859.749939,619.403442 880.812073,612.006104 
	C833.836243,612.006104 786.860413,612.006104 739.884583,612.006104 
	C742.596924,613.837280 745.535278,614.734619 748.371460,615.884216 
	C760.499146,620.800110 769.826294,629.076599 765.225769,643.461792 
	C759.790405,660.457642 754.280151,677.429443 748.829224,694.420288 
	C745.765869,703.968872 740.921021,712.396667 732.411682,717.994934 
	C723.247070,724.024170 713.199463,728.209839 702.403931,730.482666 
	C701.228638,730.730103 700.143860,731.407288 699.017029,731.885132 
	C699.144897,732.175781 699.272705,732.466370 699.400513,732.757019 
	C749.488098,732.757019 799.575623,732.757019 850.413757,732.757019 
	C849.221008,731.764709 848.773804,731.238708 848.206543,730.942932 
	C830.226074,721.569092 825.133850,709.816711 831.410706,690.957092 
	C832.735657,686.976257 833.715454,681.730957 839.267822,681.173645 
	C849.272766,680.169373 858.509277,681.900391 865.722961,690.893127 
M579.995239,684.517395 
	C576.200439,697.131897 571.783508,709.452332 560.518127,717.585144 
	C549.989014,725.186462 537.485596,728.374756 525.469788,732.572998 
	C578.345398,732.572998 631.221008,732.572998 685.450195,732.572998 
	C683.716614,731.367004 683.243591,730.936035 682.691284,730.669617 
	C677.353149,728.094849 671.746948,725.965454 666.713257,722.895630 
	C658.988342,718.184631 654.544434,707.422791 657.063965,698.526672 
	C661.015259,684.574707 665.651428,670.813049 670.149841,657.020508 
	C676.774109,636.709717 689.339355,622.228210 710.561462,616.385864 
	C714.718567,615.241394 718.852356,614.012268 722.996826,612.822144 
	C722.930176,612.663025 722.863525,612.503845 722.796875,612.344727 
	C671.195190,612.344727 619.593506,612.344727 566.644348,612.344727 
	C572.994202,615.060608 578.094482,616.840027 582.810791,619.343018 
	C592.622131,624.549927 597.264771,635.173157 594.068909,644.453796 
	C589.545593,657.589172 584.912598,670.686707 579.995239,684.517395 
M312.552551,824.007690 
	C313.846039,825.040955 315.074738,826.850586 316.444946,826.965027 
	C320.912140,827.337891 325.439636,827.241211 329.923920,826.980896 
	C331.070282,826.914368 332.814301,825.795105 333.141968,824.787964 
	C335.547516,817.394531 337.717926,809.922363 339.853302,802.443909 
	C341.766785,795.742676 343.541077,789.001709 345.763367,780.862305 
	C346.708618,783.077820 347.074524,783.758545 347.297119,784.483398 
	C351.133301,796.973633 355.042084,809.442871 358.718353,821.980164 
	C359.799500,825.667297 361.395691,827.666382 365.628235,827.211609 
	C368.911499,826.858704 372.326172,827.657410 375.591309,827.236877 
	C377.218536,827.027344 379.444000,825.555054 380.029449,824.102234 
	C384.596771,812.767517 388.847931,801.305054 393.162415,789.869080 
	C396.291504,781.575134 399.368164,773.261292 402.755676,764.186218 
	C397.310852,764.186218 392.706390,764.323975 388.115479,764.134277 
	C385.378937,764.021240 383.940704,764.840881 383.107208,767.613525 
	C380.773987,775.374573 378.164825,783.053772 375.604736,790.745300 
	C373.773132,796.248291 371.845062,801.719055 369.960022,807.204224 
	C365.385681,795.036926 361.747345,783.075928 358.237488,771.077271 
	C356.150909,763.944153 356.241852,763.919189 348.893646,764.001953 
	C346.227722,764.032043 343.541901,764.265198 340.900818,764.020630 
	C337.820190,763.735229 336.389587,764.993774 335.570831,767.880676 
	C332.731689,777.890991 329.691437,787.844177 326.770966,797.831726 
	C325.891418,800.839600 325.152771,803.888672 324.349609,806.918884 
	C322.724213,805.695679 322.144653,804.560303 321.747253,803.364441 
	C317.731812,791.282166 313.789520,779.175110 309.686615,767.122803 
	C309.266541,765.888855 307.975494,764.085999 307.018799,764.041199 
	C300.974609,763.758667 294.910706,763.898010 288.807709,763.898010 
	C296.786621,784.102722 304.527740,803.705200 312.552551,824.007690 
M1223.826538,806.499084 
	C1223.904175,793.835327 1224.070068,781.170715 1223.941284,768.509094 
	C1223.926270,767.022400 1222.398438,764.368408 1221.386475,764.275452 
	C1216.516479,763.828430 1211.583008,764.074402 1205.796631,764.074402 
	C1205.796631,778.124084 1205.796631,791.458374 1205.796631,806.203857 
	C1203.800415,804.418091 1202.914062,803.809448 1202.258911,803.011169 
	C1194.570923,793.642395 1186.891724,784.266052 1179.261719,774.850098 
	C1170.208008,763.677490 1170.230103,763.817017 1155.854004,763.846436 
	C1151.787964,763.854736 1150.799072,765.233826 1150.802856,769.050415 
	C1150.820923,787.374634 1150.541748,805.699036 1150.550171,824.023315 
	C1150.550659,825.119934 1152.080688,827.111938 1152.986938,827.164307 
	C1158.228027,827.467041 1163.495605,827.311951 1169.362549,827.311951 
	C1169.362549,812.875854 1169.362549,799.367432 1169.362549,785.130676 
	C1178.624512,796.101562 1188.211670,805.680847 1195.575684,816.740540 
	C1201.505859,825.647034 1208.390381,828.688110 1218.257080,827.207458 
	C1218.909424,827.109558 1219.591919,827.141663 1220.254272,827.192627 
	C1223.350952,827.430603 1224.251587,825.978027 1224.085938,822.988770 
	C1223.800293,817.836304 1223.883789,812.663269 1223.826538,806.499084 
M649.892456,797.499634 
	C649.879517,806.157104 649.962097,814.816284 649.801575,823.471008 
	C649.745422,826.499756 650.689575,827.709656 653.818237,827.476746 
	C657.130615,827.229980 660.480103,827.263550 663.801636,827.421936 
	C666.930176,827.571106 668.245911,826.633545 668.152283,823.186951 
	C667.849487,812.039062 667.869507,800.882263 667.769653,789.728943 
	C667.756104,788.214661 667.767883,786.700134 667.767883,784.109314 
	C669.333618,785.506958 669.994019,785.954834 670.475891,786.547729 
	C678.626404,796.575500 687.685059,806.025513 694.610779,816.840576 
	C700.794983,826.497864 708.535034,828.755798 718.843567,827.592957 
	C722.226440,827.211365 723.316101,826.377625 723.250000,822.820496 
	C722.959412,807.174988 722.964539,791.523193 722.952759,775.873535 
	C722.944092,764.271057 723.005981,764.271484 711.643616,764.312805 
	C710.811218,764.315796 709.970764,764.377258 709.147888,764.286194 
	C705.806152,763.916321 704.900085,765.476807 704.923523,768.670166 
	C705.006592,779.988892 704.843933,791.309753 704.728821,802.629333 
	C704.718750,803.621033 704.375732,804.609314 704.116638,805.971436 
	C695.214783,795.304688 685.873718,785.713440 678.506775,774.790588 
	C672.319214,765.616211 664.849060,762.743286 654.687988,764.217773 
	C654.525330,764.241394 654.353210,764.233582 654.189453,764.211487 
	C650.845520,763.760376 649.861633,765.334229 649.907104,768.532776 
	C650.039673,777.853149 649.924438,787.177124 649.892456,797.499634 
M1241.319824,775.533081 
	C1241.319824,792.763977 1241.319824,809.994812 1241.319824,827.431213 
	C1260.658447,827.431213 1279.437988,827.446594 1298.217529,827.425049 
	C1308.520752,827.413269 1308.526245,827.385010 1308.224121,817.159546 
	C1308.210693,816.707153 1307.935425,816.262451 1307.701294,815.577454 
	C1295.217896,815.577454 1282.750732,815.651489 1270.284912,815.556946 
	C1257.549927,815.460388 1259.919556,817.480042 1259.669800,804.738831 
	C1259.597290,801.046204 1260.937988,799.824036 1264.643677,799.913086 
	C1275.629883,800.177124 1286.624268,800.078796 1297.614624,800.197815 
	C1300.358276,800.227539 1303.275146,800.827942 1302.576172,796.411804 
	C1302.071899,793.226929 1304.336548,788.751282 1297.777588,788.984680 
	C1287.132935,789.363464 1276.464844,789.108459 1265.806885,789.063721 
	C1263.879883,789.055603 1261.953979,788.772766 1259.971802,788.612305 
	C1259.971802,785.815369 1260.195068,783.492065 1259.923828,781.228027 
	C1259.409546,776.934631 1261.270386,775.869812 1265.333374,775.919495 
	C1277.653931,776.070068 1289.983032,775.614746 1302.301270,775.830566 
	C1309.569946,775.957825 1305.970947,770.685059 1306.726440,767.728088 
	C1307.652100,764.106201 1305.204346,763.842834 1302.300415,763.877136 
	C1285.316162,764.077820 1268.330078,764.119080 1251.344727,764.240173 
	C1241.222412,764.312317 1241.222534,764.333740 1241.319824,775.533081 
M142.035889,764.064209 
	C136.935608,764.064209 131.835327,764.064209 126.491005,764.064209 
	C126.384300,765.824951 126.243973,767.119568 126.236794,768.414978 
	C126.154778,783.235168 126.039474,798.055481 126.057770,812.875610 
	C126.063423,817.458740 124.732704,823.814331 127.131744,826.134521 
	C129.620255,828.541321 135.904373,826.869995 140.498550,827.301025 
	C144.234802,827.651611 145.006683,826.045715 144.834869,822.673218 
	C144.530090,816.690552 144.767593,810.681335 144.512558,804.694580 
	C144.358429,801.076294 145.562943,799.543518 149.346313,799.728149 
	C154.330933,799.971313 159.336288,799.789429 164.332733,799.789795 
	C169.750702,799.790222 175.168686,799.789917 180.893005,799.789917 
	C180.893005,808.057312 180.774185,815.534302 181.000916,823.000732 
	C181.042450,824.368225 182.412140,826.794067 183.300339,826.856323 
	C188.540283,827.224060 193.819122,827.037476 199.425369,827.037476 
	C199.425369,806.644165 199.476852,786.851624 199.279572,767.061584 
	C199.269257,766.027710 197.208725,764.239441 195.988693,764.135071 
	C192.024475,763.796082 188.003754,764.196350 184.011536,764.080139 
	C181.013870,763.992859 180.445068,765.323364 180.565109,768.063110 
	C180.805466,773.548645 180.550354,779.054199 180.691406,784.546509 
	C180.769791,787.598022 179.623260,788.641113 176.544495,788.513123 
	C167.229080,788.125793 157.904175,787.928833 148.581009,787.787903 
	C145.761002,787.745239 144.817047,786.549194 144.850632,783.823303 
	C144.912155,778.830139 144.839127,773.826294 144.548172,768.842896 
	C144.454651,767.241272 143.498764,765.689941 142.035889,764.064209 
M1000.703979,776.075378 
	C1008.780579,776.075378 1016.857178,776.075378 1024.959961,776.075378 
	C1024.959961,771.589111 1024.959961,768.167358 1024.959961,764.506958 
	C1003.438416,764.506958 982.250305,764.506958 960.967041,764.506958 
	C960.967041,785.709473 960.967041,806.439270 960.967041,827.484558 
	C980.020203,827.484558 998.659668,827.547729 1017.298462,827.461365 
	C1028.830811,827.407898 1026.965210,829.471008 1026.991699,817.369934 
	C1026.992676,816.922974 1026.682495,816.475281 1026.365845,815.617188 
	C1013.973267,815.617188 1001.503479,815.738098 989.037170,815.582458 
	C976.973633,815.431946 978.975403,817.925476 978.694275,804.954041 
	C978.615234,801.308716 979.847473,800.005127 983.631531,800.087219 
	C994.623230,800.325867 1005.625610,800.058044 1016.618408,800.269287 
	C1020.028625,800.334839 1021.747559,799.597778 1021.110352,795.888916 
	C1020.602112,792.930359 1023.018005,788.668823 1016.568237,788.967102 
	C1005.593506,789.474854 994.579590,789.077332 983.585938,789.272461 
	C980.017334,789.335815 978.264771,788.356873 978.652588,784.484924 
	C978.911194,781.903137 978.701660,779.274414 978.701660,776.084473 
	C986.156433,776.084473 992.954712,776.084473 1000.703979,776.075378 
M581.870239,814.110779 
	C589.680603,814.265381 597.525635,814.938843 605.290894,814.419434 
	C612.184143,813.958313 616.766174,815.469849 618.550903,822.765747 
	C618.983337,824.533630 620.964722,827.114807 622.408142,827.235413 
	C628.434998,827.739075 634.528259,827.447510 640.767700,827.447510 
	C640.607727,825.995056 640.691528,825.448364 640.483643,825.056152 
	C632.213318,809.455261 622.901245,794.304321 615.960938,778.134888 
	C610.874268,766.284058 603.901855,761.475098 591.641907,764.256348 
	C589.711975,764.694153 587.254639,765.865234 586.382874,767.440002 
	C576.805908,784.740723 567.483521,802.182556 558.126099,819.604431 
	C556.923767,821.843018 555.914612,824.185486 554.519226,827.099548 
	C560.796204,827.099548 566.420166,827.289124 572.014709,826.966797 
	C573.419800,826.885803 575.164673,825.440491 575.997131,824.138611 
	C577.934875,821.107971 579.412170,817.783081 581.870239,814.110779 
M446.997986,764.176086 
	C443.004425,764.206604 439.001434,764.418884 435.020203,764.211975 
	C431.641632,764.036316 429.728729,765.132568 428.067871,768.308838 
	C419.197144,785.273499 410.006866,802.070923 400.956482,818.941895 
	C399.610107,821.451782 398.419617,824.045227 396.745758,827.432190 
	C400.873077,827.432190 404.052216,826.994080 407.064728,827.516602 
	C415.199982,828.927734 419.519867,825.210083 422.020874,817.866638 
	C422.535248,816.356384 424.960083,814.570435 426.562256,814.512512 
	C434.868378,814.212097 443.197083,814.594666 451.509979,814.399719 
	C455.684387,814.301941 458.259369,815.268433 459.530823,819.765198 
	C460.321198,822.560364 462.449829,826.769470 464.484283,827.085693 
	C470.690277,828.050415 477.141785,827.435852 484.050354,827.435852 
	C472.879730,806.332153 462.272125,786.217163 451.513336,766.183350 
	C450.962585,765.157776 449.113647,764.829407 446.997986,764.176086 
M283.002502,804.425171 
	C278.326355,795.526184 273.562744,786.671814 268.994415,777.717834 
	C262.026520,764.060669 262.083893,764.031311 246.924210,764.121033 
	C246.258835,764.125000 245.474442,763.905151 244.950043,764.179932 
	C243.250488,765.070496 240.904892,765.744141 240.118134,767.206299 
	C230.513596,785.056213 221.145630,803.033386 211.709015,820.973816 
	C210.680313,822.929565 209.605896,824.861267 208.194122,827.465576 
	C212.001770,827.465576 215.006622,827.085388 217.880524,827.537476 
	C226.257858,828.855286 231.406464,825.821350 233.627625,817.436951 
	C233.991684,816.062622 236.619522,814.448242 238.248871,814.394531 
	C245.217819,814.164734 252.250580,815.022766 259.171997,814.439270 
	C266.019012,813.862122 270.066254,815.979980 271.945068,822.702515 
	C272.446472,824.496704 274.329773,827.118103 275.749908,827.232422 
	C281.948792,827.731384 288.210754,827.446960 295.348480,827.446960 
	C290.890167,819.256714 287.049500,812.201050 283.002502,804.425171 
M941.503296,790.017639 
	C932.352478,789.981506 923.201660,789.929260 914.050842,789.913330 
	C903.306091,789.894592 903.376282,789.913757 904.212463,779.194397 
	C904.423462,776.489258 905.303589,775.463867 908.161316,775.505371 
	C919.981873,775.677002 931.806885,775.534851 943.627686,775.698303 
	C946.587769,775.739258 948.837402,775.434509 948.147888,771.810425 
	C947.574158,768.794983 950.470093,763.872681 943.816711,763.938416 
	C925.832764,764.115906 907.846924,764.165833 889.862122,764.130310 
	C886.670593,764.124023 885.486816,765.090332 885.501831,768.433960 
	C885.584961,786.918396 885.527893,805.404419 885.335693,823.888062 
	C885.306458,826.700317 886.393127,827.369507 888.806030,827.311646 
	C892.634399,827.219727 896.470032,827.092041 900.293213,827.232910 
	C903.304871,827.343872 904.444153,826.248474 904.345764,823.170349 
	C904.159485,817.347717 904.508667,811.504211 904.220032,805.689941 
	C904.037659,802.016663 905.464111,801.174377 908.841309,801.258850 
	C916.829895,801.458801 924.827087,801.333679 932.820740,801.310303 
	C943.110046,801.280273 943.110840,801.267700 942.421143,790.950928 
	C942.411133,790.802002 942.263367,790.662170 941.503296,790.017639 
M1060.360474,768.016479 
	C1060.712646,764.926514 1059.225464,763.837097 1056.267700,764.002441 
	C1053.445068,764.160034 1050.573120,764.356445 1047.785522,764.018616 
	C1042.793701,763.413513 1041.177979,765.164001 1041.271729,770.313599 
	C1041.593262,787.955505 1041.504639,805.607056 1041.368286,823.253357 
	C1041.342407,826.607056 1042.441284,827.574768 1045.673462,827.539734 
	C1057.323730,827.413391 1068.976562,827.524597 1080.628418,827.537292 
	C1088.258545,827.545593 1095.888794,827.538818 1103.876709,827.538818 
	C1103.876709,823.488892 1103.876709,819.759094 1103.876709,815.391907 
	C1089.532593,815.391907 1075.161133,815.391907 1060.359985,815.391907 
	C1060.359985,799.490295 1060.359985,784.208984 1060.360474,768.016479 
M794.045044,790.500732 
	C794.081665,786.341431 794.113953,782.182129 794.155701,778.022888 
	C794.298096,763.825500 794.299866,763.952576 779.846924,764.005127 
	C776.052795,764.018921 775.068298,765.269775 775.092468,768.922058 
	C775.213501,787.222656 775.074524,805.524963 775.057251,823.826660 
	C775.056274,824.922241 775.319397,826.018066 775.523804,827.615112 
	C777.914917,827.615112 780.043152,827.618591 782.171448,827.614624 
	C797.469910,827.585754 812.768372,827.510193 828.066711,827.540894 
	C838.782715,827.562439 838.785095,827.626831 838.177063,816.902039 
	C838.159363,816.590271 837.954163,816.289062 837.662109,815.530029 
	C836.210144,815.530029 834.585876,815.529480 832.961609,815.530090 
	C821.814148,815.534363 810.659729,815.312439 799.522522,815.652649 
	C794.960632,815.792053 793.800781,814.231018 794.015320,809.964844 
	C794.324036,803.825195 794.064209,797.656982 794.045044,790.500732 
M860.425598,827.372803 
	C862.253967,827.338745 864.212341,827.695923 865.869080,827.145325 
	C867.167480,826.713867 869.032837,825.168274 869.043640,824.101440 
	C869.231445,805.484619 869.136963,786.865112 869.201477,768.246582 
	C869.211731,765.284058 868.136902,763.969482 865.111877,764.085815 
	C861.625793,764.219910 858.104797,764.397156 854.646729,764.061890 
	C850.452515,763.655273 849.722839,765.478943 849.769714,769.248718 
	C849.970093,785.370544 849.960083,801.496826 849.840332,817.620178 
	C849.765747,827.661072 849.616150,827.659973 860.425598,827.372803 
M507.895569,764.293213 
	C502.943756,764.293213 497.991974,764.293213 493.293457,764.293213 
	C492.872223,765.002502 492.560669,765.283081 492.557983,765.566528 
	C492.369598,785.360596 492.172333,805.154846 492.161194,824.949158 
	C492.160736,825.752014 493.906311,827.202881 494.888611,827.247620 
	C499.203979,827.443909 503.559265,827.450745 507.850677,827.026550 
	C508.997223,826.913147 510.877869,825.038269 510.885773,823.960938 
	C511.023651,805.154846 510.957550,786.346680 510.782745,767.540405 
	C510.772583,766.446167 509.460297,765.364014 507.895569,764.293213 
M527.602356,775.552124 
	C527.602356,792.627808 527.602356,809.703552 527.602356,827.173401 
	C530.504456,827.173401 532.797180,827.153748 535.089539,827.176758 
	C546.074951,827.287109 546.211975,827.292297 546.297607,816.471130 
	C546.421265,800.830322 546.361694,785.187561 546.275513,769.546265 
	C546.262878,767.260925 547.028076,764.145569 542.989746,764.148865 
	C538.040771,764.152893 533.091797,764.149841 527.603516,764.149841 
	C527.603516,768.005859 527.603516,771.290588 527.602356,775.552124 
M1114.840454,783.500977 
	C1114.798706,796.653809 1114.745728,809.806641 1114.727173,822.959473 
	C1114.724243,825.009521 1113.960205,827.607117 1117.483276,827.607300 
	C1122.935181,827.607666 1128.387207,827.607361 1133.926270,827.607361 
	C1134.108276,825.749512 1134.253418,824.954346 1134.254150,824.159058 
	C1134.269897,808.840759 1134.290161,793.522339 1134.265015,778.204102 
	C1134.240845,763.567444 1134.220337,763.652344 1119.483032,763.972229 
	C1116.147949,764.044678 1114.611084,764.856995 1114.826782,768.519104 
	C1115.100464,773.163879 1114.858154,777.839111 1114.840454,783.500977 
z"/>
<path fill="#020202" opacity="1.000000" stroke="none" 
	d="
M627.927612,359.160522 
	C629.337646,358.359924 631.008118,357.623810 631.146179,356.666656 
	C633.321289,341.587677 642.022095,330.474365 653.498169,321.625214 
	C662.964966,314.325409 673.389954,308.268280 683.390320,301.660461 
	C683.840393,302.060760 684.290527,302.461060 684.740601,302.861359 
	C684.203003,304.006470 683.665100,305.151398 683.127991,306.296722 
	C680.299744,312.327667 682.990540,317.782593 689.506531,319.061676 
	C706.851990,322.466553 721.932312,317.437897 734.981323,306.113831 
	C740.434998,301.381073 740.007446,297.609314 734.439575,292.947052 
	C731.952759,290.864746 729.145752,289.164795 726.073486,287.002350 
	C727.926819,286.491882 729.326233,285.846893 730.761780,285.752808 
	C740.695557,285.101776 750.710571,283.508728 760.561646,284.195343 
	C787.526489,286.074890 813.896362,290.763306 836.494629,307.233063 
	C849.615967,316.795959 857.764954,329.228821 856.237305,346.143372 
	C855.162109,358.048004 849.837769,368.238586 841.832581,377.093109 
	C826.603333,393.938232 807.699036,404.400909 785.945251,410.456146 
	C760.686584,417.486938 735.008484,419.911713 708.969604,418.221863 
	C694.888672,417.308105 680.891235,415.168854 666.833801,413.813477 
	C652.605225,412.441589 638.224915,412.152405 624.133850,409.958130 
	C602.345459,406.565247 580.660217,402.358337 559.092651,397.742706 
	C539.664673,393.584930 521.013489,386.812134 502.953979,378.462006 
	C482.632477,369.066071 463.795471,357.583740 449.435333,339.977875 
	C442.250824,331.169556 436.719696,321.535614 435.553284,309.803009 
	C434.021454,294.394836 438.309570,280.722595 447.039032,268.225800 
	C462.790375,245.676620 485.154236,231.353943 508.947296,218.970108 
	C535.835754,204.975204 564.374939,195.139938 593.567749,187.361511 
	C609.831604,183.027985 626.475220,180.113541 642.958618,176.611389 
	C669.183594,171.039536 695.772888,168.468964 722.466980,166.334427 
	C756.397095,163.621262 790.357056,163.278992 824.311462,164.271774 
	C846.893311,164.932053 869.546875,166.199554 891.954956,168.940186 
	C918.117737,172.140045 944.267456,176.227371 970.017151,181.803253 
	C995.043335,187.222473 1020.049377,193.606934 1044.184570,202.074875 
	C1085.639893,216.619583 1124.608398,236.144699 1155.749634,268.392273 
	C1175.982422,289.343811 1188.773560,313.600616 1188.127197,343.506683 
	C1187.722534,362.236023 1180.946411,379.031982 1170.704102,394.347290 
	C1156.573853,415.476166 1137.528320,431.552155 1116.355225,445.282104 
	C1085.234619,465.462769 1051.460693,479.791107 1016.100159,490.516418 
	C999.192444,495.644806 982.273987,500.931976 965.057190,504.796021 
	C945.493286,509.186859 925.624817,512.275085 905.826355,515.552795 
	C880.547974,519.737793 855.111206,522.467896 829.444519,522.660950 
	C793.498657,522.931274 757.553650,523.409180 721.607544,523.505615 
	C708.966248,523.539551 696.310913,522.924561 683.683105,522.224304 
	C666.417847,521.266907 649.090942,520.627075 631.944092,518.570496 
	C617.464600,516.833740 603.245056,517.023926 588.873413,518.897766 
	C576.500793,520.510864 570.570129,529.870422 576.319946,540.917358 
	C580.646545,549.230042 586.448364,556.783997 591.711548,564.596191 
	C594.304749,568.445190 597.247131,572.057678 599.885315,575.878113 
	C603.557129,581.195190 603.516907,586.678284 599.952637,589.892761 
	C596.112244,593.356262 591.892456,592.657593 586.095581,588.276001 
	C575.664124,580.391357 565.463623,572.092285 554.424866,565.145081 
	C537.074036,554.225403 517.875732,547.663879 497.697052,543.916443 
	C467.472717,538.303528 436.957520,536.818420 406.297180,536.903259 
	C344.135956,537.075256 281.974457,537.152649 219.813019,537.182251 
	C216.886993,537.183655 213.826569,536.740112 211.066330,535.803528 
	C207.124207,534.465820 206.522720,531.152771 209.964279,528.813416 
	C212.743393,526.924438 216.183945,525.525391 219.504181,524.997070 
	C236.047119,522.365112 252.654343,520.140503 269.225342,517.680908 
	C286.311401,515.144775 303.378082,512.478149 320.460388,509.916077 
	C332.769623,508.069855 345.148926,506.626007 357.392731,504.423187 
	C376.474304,500.990082 395.510345,497.269135 414.482483,493.274963 
	C426.456573,490.754089 438.377655,487.855377 450.132233,484.466156 
	C457.045654,482.472778 463.824249,479.653778 470.243256,476.381714 
	C481.996552,470.390625 485.519592,460.312592 475.408112,449.475616 
	C474.390442,448.384949 472.928894,447.381897 472.555847,446.084442 
	C471.786804,443.409485 470.497437,439.988647 471.539124,437.963837 
	C472.417511,436.256439 476.587738,434.915497 478.772827,435.474915 
	C483.818207,436.766541 488.795715,438.861237 493.352997,441.425812 
	C510.723236,451.200745 529.575378,456.911987 548.839233,460.905212 
	C566.996582,464.669067 585.451233,467.070953 603.831787,469.671234 
	C643.227783,475.244568 682.843079,475.037109 722.391174,472.414490 
	C744.565369,470.943970 766.673584,467.884644 788.678589,464.639282 
	C807.536743,461.858002 826.421570,458.667969 844.909912,454.101166 
	C876.465698,446.306671 907.453979,436.480469 936.066345,420.597931 
	C955.292969,409.925385 972.977600,397.229492 986.340576,379.282928 
	C999.514526,361.590363 1006.454285,341.994263 1003.920959,319.852844 
	C1001.503845,298.728027 990.539124,282.024689 974.808716,268.298950 
	C956.907593,252.679230 936.256104,241.705872 914.185547,233.252350 
	C889.663208,223.859726 864.277222,217.571747 838.441956,213.309357 
	C806.882568,208.102554 775.061462,205.210632 743.046265,206.803360 
	C723.953369,207.753204 704.784851,208.889526 685.884338,211.583511 
	C660.637268,215.182098 635.575500,220.365295 611.681274,229.646072 
	C593.362061,236.761490 575.657532,245.256302 560.525391,258.167694 
	C552.672363,264.868164 545.587402,272.141266 541.907837,282.226990 
	C536.512329,297.016357 540.497253,309.925323 549.626770,321.586517 
	C560.808411,335.868958 576.145569,344.586456 592.872986,350.422485 
	C604.057312,354.324615 615.917358,356.290070 627.927612,359.160522 
z"/>
<path fill="#030303" opacity="1.000000" stroke="none" 
	d="
M309.000977,733.467163 
	C247.182953,733.465332 185.865051,733.465332 124.547157,733.465332 
	C124.461601,733.166382 124.376045,732.867371 124.290489,732.568420 
	C126.643356,731.846924 128.959961,730.961914 131.355026,730.430664 
	C146.183777,727.141907 159.719070,721.211548 172.139893,712.294006 
	C183.338882,704.253723 189.796478,693.153381 194.498749,680.796936 
	C202.953262,658.580566 211.172470,636.272766 219.274994,613.925232 
	C222.241043,605.744507 224.743332,597.243286 218.931519,589.189026 
	C213.645935,581.864014 206.408768,577.007324 197.842682,574.264709 
	C191.541733,572.247314 185.135910,570.558777 178.791809,568.673218 
	C177.941147,568.420349 177.178650,567.870911 175.354980,566.935303 
	C177.302765,566.549438 178.151398,566.234070 179.000061,566.234009 
	C258.987091,566.229431 338.974091,566.228394 418.961090,566.279114 
	C443.274902,566.294495 467.536987,567.584473 491.515778,571.687927 
	C507.041779,574.344971 522.143433,578.869812 535.648010,587.357605 
	C545.851074,593.770447 554.416016,601.845703 556.671509,614.369080 
	C558.417908,624.065002 555.897583,633.175842 550.683777,641.421936 
	C539.370789,659.314636 522.939270,671.017212 503.804230,679.167053 
	C486.583069,686.501770 468.699005,691.295776 450.219513,694.821777 
	C416.683167,701.220642 382.975006,699.920837 349.229797,699.745483 
	C339.283752,699.693787 329.337250,699.737549 318.393829,699.737549 
	C319.400269,702.058838 319.971466,704.025452 321.020966,705.690613 
	C327.501556,715.973267 337.990570,720.659851 348.687469,724.742004 
	C356.218323,727.615967 364.070557,729.645996 371.768311,732.087585 
	C372.515198,732.324524 373.184113,732.807190 374.449921,733.468994 
	C352.339661,733.468994 330.920380,733.468994 309.000977,733.467163 
M339.274994,629.694702 
	C335.376160,639.140198 331.477356,648.585754 327.448090,658.347229 
	C329.278748,658.769836 329.904663,659.001953 330.544281,659.049377 
	C356.991913,661.005676 383.378601,661.444885 409.305511,654.614258 
	C419.467010,651.937134 428.993744,647.785400 436.276642,639.760864 
	C445.066376,630.075928 443.954895,621.441345 433.245514,614.029114 
	C423.156830,607.046509 411.410431,605.031189 399.815857,604.543335 
	C384.933289,603.917175 369.958130,605.193237 355.042267,606.006165 
	C352.983582,606.118408 350.188965,607.798340 349.190369,609.571899 
	C345.652222,615.855774 342.745300,622.494995 339.274994,629.694702 
z"/>
<path fill="#030303" opacity="1.000000" stroke="none" 
	d="
M1059.281128,631.302612 
	C1072.715576,626.272522 1085.581787,620.552490 1098.997681,616.794495 
	C1119.490479,611.053955 1140.611206,608.922485 1161.905518,607.510864 
	C1180.976685,606.246521 1199.780762,607.784973 1218.504517,610.043823 
	C1240.874756,612.742676 1263.021484,617.475525 1282.395996,629.864441 
	C1289.245850,634.244446 1295.982056,639.734131 1300.774658,646.196899 
	C1309.589478,658.083130 1308.357300,671.786377 1299.234131,683.979431 
	C1290.050659,696.253540 1277.469116,704.226746 1264.137817,711.035278 
	C1245.307007,720.652527 1225.117188,725.956665 1204.388306,729.942444 
	C1172.216797,736.128479 1139.843262,736.812256 1107.435669,734.156799 
	C1083.097656,732.162476 1059.062866,727.534363 1037.871826,714.302124 
	C1031.825562,710.526550 1026.346802,705.362488 1021.724792,699.891418 
	C1013.610474,690.286499 1013.735107,679.270691 1018.588318,668.064087 
	C1024.677124,654.004211 1036.026978,645.026245 1048.502319,637.182678 
	C1051.855347,635.074646 1055.466431,633.377380 1059.281128,631.302612 
M1141.159302,640.694031 
	C1130.051147,645.424805 1120.731323,652.472351 1114.597412,662.950806 
	C1105.249390,678.919922 1110.104492,693.937317 1126.534302,702.356323 
	C1134.396606,706.385132 1142.684692,707.435547 1151.188721,706.753601 
	C1173.964600,704.927185 1192.254761,695.625916 1202.842773,674.325378 
	C1209.497192,660.938538 1205.050049,647.492737 1191.518921,640.944092 
	C1175.147827,633.020935 1158.483032,634.064026 1141.159302,640.694031 
z"/>
<path fill="#030303" opacity="1.000000" stroke="none" 
	d="
M865.520142,690.590576 
	C858.509277,681.900391 849.272766,680.169373 839.267822,681.173645 
	C833.715454,681.730957 832.735657,686.976257 831.410706,690.957092 
	C825.133850,709.816711 830.226074,721.569092 848.206543,730.942932 
	C848.773804,731.238708 849.221008,731.764709 850.413757,732.757019 
	C799.575623,732.757019 749.488098,732.757019 699.400513,732.757019 
	C699.272705,732.466370 699.144897,732.175781 699.017029,731.885132 
	C700.143860,731.407288 701.228638,730.730103 702.403931,730.482666 
	C713.199463,728.209839 723.247070,724.024170 732.411682,717.994934 
	C740.921021,712.396667 745.765869,703.968872 748.829224,694.420288 
	C754.280151,677.429443 759.790405,660.457642 765.225769,643.461792 
	C769.826294,629.076599 760.499146,620.800110 748.371460,615.884216 
	C745.535278,614.734619 742.596924,613.837280 739.884583,612.006104 
	C786.860413,612.006104 833.836243,612.006104 880.812073,612.006104 
	C859.749939,619.403442 848.421631,635.054077 842.663513,657.331238 
	C850.601807,656.405090 857.978882,656.028992 865.148560,654.606812 
	C879.918091,651.677246 893.758301,646.251282 905.413269,636.427124 
	C911.933472,630.931091 917.285217,624.388306 919.225586,615.729614 
	C919.839600,612.989441 921.405029,612.042664 924.185608,612.035828 
	C959.007446,611.950195 993.829102,611.774292 1028.650879,611.648865 
	C1029.405884,611.646179 1030.161987,611.966370 1031.403442,612.244995 
	C991.788269,642.282227 946.285095,656.547791 898.726746,665.852478 
	C898.814758,666.479919 898.902832,667.107422 898.990845,667.734863 
	C904.119995,669.033447 909.258667,670.295593 914.376709,671.636780 
	C939.998535,678.350769 964.196167,687.984436 982.573975,708.007202 
	C989.193787,715.219604 994.390564,723.738281 1001.065369,732.783813 
	C954.617065,732.783813 909.972168,732.783813 864.684204,732.783813 
	C873.277222,718.660767 874.399292,704.823669 865.520142,690.590576 
z"/>
<path fill="#030303" opacity="1.000000" stroke="none" 
	d="
M580.160828,684.158936 
	C584.912598,670.686707 589.545593,657.589172 594.068909,644.453796 
	C597.264771,635.173157 592.622131,624.549927 582.810791,619.343018 
	C578.094482,616.840027 572.994202,615.060608 566.644348,612.344727 
	C619.593506,612.344727 671.195190,612.344727 722.796875,612.344727 
	C722.863525,612.503845 722.930176,612.663025 722.996826,612.822144 
	C718.852356,614.012268 714.718567,615.241394 710.561462,616.385864 
	C689.339355,622.228210 676.774109,636.709717 670.149841,657.020508 
	C665.651428,670.813049 661.015259,684.574707 657.063965,698.526672 
	C654.544434,707.422791 658.988342,718.184631 666.713257,722.895630 
	C671.746948,725.965454 677.353149,728.094849 682.691284,730.669617 
	C683.243591,730.936035 683.716614,731.367004 685.450195,732.572998 
	C631.221008,732.572998 578.345398,732.572998 525.469788,732.572998 
	C537.485596,728.374756 549.989014,725.186462 560.518127,717.585144 
	C571.783508,709.452332 576.200439,697.131897 580.160828,684.158936 
z"/>
<path fill="#0A0A0A" opacity="1.000000" stroke="none" 
	d="
M312.410706,823.657715 
	C304.527740,803.705200 296.786621,784.102722 288.807709,763.898010 
	C294.910706,763.898010 300.974609,763.758667 307.018799,764.041199 
	C307.975494,764.085999 309.266541,765.888855 309.686615,767.122803 
	C313.789520,779.175110 317.731812,791.282166 321.747253,803.364441 
	C322.144653,804.560303 322.724213,805.695679 324.349609,806.918884 
	C325.152771,803.888672 325.891418,800.839600 326.770966,797.831726 
	C329.691437,787.844177 332.731689,777.890991 335.570831,767.880676 
	C336.389587,764.993774 337.820190,763.735229 340.900818,764.020630 
	C343.541901,764.265198 346.227722,764.032043 348.893646,764.001953 
	C356.241852,763.919189 356.150909,763.944153 358.237488,771.077271 
	C361.747345,783.075928 365.385681,795.036926 369.960022,807.204224 
	C371.845062,801.719055 373.773132,796.248291 375.604736,790.745300 
	C378.164825,783.053772 380.773987,775.374573 383.107208,767.613525 
	C383.940704,764.840881 385.378937,764.021240 388.115479,764.134277 
	C392.706390,764.323975 397.310852,764.186218 402.755676,764.186218 
	C399.368164,773.261292 396.291504,781.575134 393.162415,789.869080 
	C388.847931,801.305054 384.596771,812.767517 380.029449,824.102234 
	C379.444000,825.555054 377.218536,827.027344 375.591309,827.236877 
	C372.326172,827.657410 368.911499,826.858704 365.628235,827.211609 
	C361.395691,827.666382 359.799500,825.667297 358.718353,821.980164 
	C355.042084,809.442871 351.133301,796.973633 347.297119,784.483398 
	C347.074524,783.758545 346.708618,783.077820 345.763367,780.862305 
	C343.541077,789.001709 341.766785,795.742676 339.853302,802.443909 
	C337.717926,809.922363 335.547516,817.394531 333.141968,824.787964 
	C332.814301,825.795105 331.070282,826.914368 329.923920,826.980896 
	C325.439636,827.241211 320.912140,827.337891 316.444946,826.965027 
	C315.074738,826.850586 313.846039,825.040955 312.410706,823.657715 
z"/>
<path fill="#0B0B0B" opacity="1.000000" stroke="none" 
	d="
M1223.819458,806.999023 
	C1223.883789,812.663269 1223.800293,817.836304 1224.085938,822.988770 
	C1224.251587,825.978027 1223.350952,827.430603 1220.254272,827.192627 
	C1219.591919,827.141663 1218.909424,827.109558 1218.257080,827.207458 
	C1208.390381,828.688110 1201.505859,825.647034 1195.575684,816.740540 
	C1188.211670,805.680847 1178.624512,796.101562 1169.362549,785.130676 
	C1169.362549,799.367432 1169.362549,812.875854 1169.362549,827.311951 
	C1163.495605,827.311951 1158.228027,827.467041 1152.986938,827.164307 
	C1152.080688,827.111938 1150.550659,825.119934 1150.550171,824.023315 
	C1150.541748,805.699036 1150.820923,787.374634 1150.802856,769.050415 
	C1150.799072,765.233826 1151.787964,763.854736 1155.854004,763.846436 
	C1170.230103,763.817017 1170.208008,763.677490 1179.261719,774.850098 
	C1186.891724,784.266052 1194.570923,793.642395 1202.258911,803.011169 
	C1202.914062,803.809448 1203.800415,804.418091 1205.796631,806.203857 
	C1205.796631,791.458374 1205.796631,778.124084 1205.796631,764.074402 
	C1211.583008,764.074402 1216.516479,763.828430 1221.386475,764.275452 
	C1222.398438,764.368408 1223.926270,767.022400 1223.941284,768.509094 
	C1224.070068,781.170715 1223.904175,793.835327 1223.819458,806.999023 
z"/>
<path fill="#0A0A0A" opacity="1.000000" stroke="none" 
	d="
M649.899414,796.999634 
	C649.924438,787.177124 650.039673,777.853149 649.907104,768.532776 
	C649.861633,765.334229 650.845520,763.760376 654.189453,764.211487 
	C654.353210,764.233582 654.525330,764.241394 654.687988,764.217773 
	C664.849060,762.743286 672.319214,765.616211 678.506775,774.790588 
	C685.873718,785.713440 695.214783,795.304688 704.116638,805.971436 
	C704.375732,804.609314 704.718750,803.621033 704.728821,802.629333 
	C704.843933,791.309753 705.006592,779.988892 704.923523,768.670166 
	C704.900085,765.476807 705.806152,763.916321 709.147888,764.286194 
	C709.970764,764.377258 710.811218,764.315796 711.643616,764.312805 
	C723.005981,764.271484 722.944092,764.271057 722.952759,775.873535 
	C722.964539,791.523193 722.959412,807.174988 723.250000,822.820496 
	C723.316101,826.377625 722.226440,827.211365 718.843567,827.592957 
	C708.535034,828.755798 700.794983,826.497864 694.610779,816.840576 
	C687.685059,806.025513 678.626404,796.575500 670.475891,786.547729 
	C669.994019,785.954834 669.333618,785.506958 667.767883,784.109314 
	C667.767883,786.700134 667.756104,788.214661 667.769653,789.728943 
	C667.869507,800.882263 667.849487,812.039062 668.152283,823.186951 
	C668.245911,826.633545 666.930176,827.571106 663.801636,827.421936 
	C660.480103,827.263550 657.130615,827.229980 653.818237,827.476746 
	C650.689575,827.709656 649.745422,826.499756 649.801575,823.471008 
	C649.962097,814.816284 649.879517,806.157104 649.899414,796.999634 
z"/>
<path fill="#101010" opacity="1.000000" stroke="none" 
	d="
M1241.315430,775.040588 
	C1241.222534,764.333740 1241.222412,764.312317 1251.344727,764.240173 
	C1268.330078,764.119080 1285.316162,764.077820 1302.300415,763.877136 
	C1305.204346,763.842834 1307.652100,764.106201 1306.726440,767.728088 
	C1305.970947,770.685059 1309.569946,775.957825 1302.301270,775.830566 
	C1289.983032,775.614746 1277.653931,776.070068 1265.333374,775.919495 
	C1261.270386,775.869812 1259.409546,776.934631 1259.923828,781.228027 
	C1260.195068,783.492065 1259.971802,785.815369 1259.971802,788.612305 
	C1261.953979,788.772766 1263.879883,789.055603 1265.806885,789.063721 
	C1276.464844,789.108459 1287.132935,789.363464 1297.777588,788.984680 
	C1304.336548,788.751282 1302.071899,793.226929 1302.576172,796.411804 
	C1303.275146,800.827942 1300.358276,800.227539 1297.614624,800.197815 
	C1286.624268,800.078796 1275.629883,800.177124 1264.643677,799.913086 
	C1260.937988,799.824036 1259.597290,801.046204 1259.669800,804.738831 
	C1259.919556,817.480042 1257.549927,815.460388 1270.284912,815.556946 
	C1282.750732,815.651489 1295.217896,815.577454 1307.701294,815.577454 
	C1307.935425,816.262451 1308.210693,816.707153 1308.224121,817.159546 
	C1308.526245,827.385010 1308.520752,827.413269 1298.217529,827.425049 
	C1279.437988,827.446594 1260.658447,827.431213 1241.319824,827.431213 
	C1241.319824,809.994812 1241.319824,792.763977 1241.315430,775.040588 
z"/>
<path fill="#0B0B0B" opacity="1.000000" stroke="none" 
	d="
M142.486649,764.089905 
	C143.498764,765.689941 144.454651,767.241272 144.548172,768.842896 
	C144.839127,773.826294 144.912155,778.830139 144.850632,783.823303 
	C144.817047,786.549194 145.761002,787.745239 148.581009,787.787903 
	C157.904175,787.928833 167.229080,788.125793 176.544495,788.513123 
	C179.623260,788.641113 180.769791,787.598022 180.691406,784.546509 
	C180.550354,779.054199 180.805466,773.548645 180.565109,768.063110 
	C180.445068,765.323364 181.013870,763.992859 184.011536,764.080139 
	C188.003754,764.196350 192.024475,763.796082 195.988693,764.135071 
	C197.208725,764.239441 199.269257,766.027710 199.279572,767.061584 
	C199.476852,786.851624 199.425369,806.644165 199.425369,827.037476 
	C193.819122,827.037476 188.540283,827.224060 183.300339,826.856323 
	C182.412140,826.794067 181.042450,824.368225 181.000916,823.000732 
	C180.774185,815.534302 180.893005,808.057312 180.893005,799.789917 
	C175.168686,799.789917 169.750702,799.790222 164.332733,799.789795 
	C159.336288,799.789429 154.330933,799.971313 149.346313,799.728149 
	C145.562943,799.543518 144.358429,801.076294 144.512558,804.694580 
	C144.767593,810.681335 144.530090,816.690552 144.834869,822.673218 
	C145.006683,826.045715 144.234802,827.651611 140.498550,827.301025 
	C135.904373,826.869995 129.620255,828.541321 127.131744,826.134521 
	C124.732704,823.814331 126.063423,817.458740 126.057770,812.875610 
	C126.039474,798.055481 126.154778,783.235168 126.236794,768.414978 
	C126.243973,767.119568 126.384300,765.824951 126.491005,764.064209 
	C131.835327,764.064209 136.935608,764.064209 142.486649,764.089905 
z"/>
<path fill="#0D0D0D" opacity="1.000000" stroke="none" 
	d="
M1000.228516,776.079956 
	C992.954712,776.084473 986.156433,776.084473 978.701660,776.084473 
	C978.701660,779.274414 978.911194,781.903137 978.652588,784.484924 
	C978.264771,788.356873 980.017334,789.335815 983.585938,789.272461 
	C994.579590,789.077332 1005.593506,789.474854 1016.568237,788.967102 
	C1023.018005,788.668823 1020.602112,792.930359 1021.110352,795.888916 
	C1021.747559,799.597778 1020.028625,800.334839 1016.618408,800.269287 
	C1005.625610,800.058044 994.623230,800.325867 983.631531,800.087219 
	C979.847473,800.005127 978.615234,801.308716 978.694275,804.954041 
	C978.975403,817.925476 976.973633,815.431946 989.037170,815.582458 
	C1001.503479,815.738098 1013.973267,815.617188 1026.365845,815.617188 
	C1026.682495,816.475281 1026.992676,816.922974 1026.991699,817.369934 
	C1026.965210,829.471008 1028.830811,827.407898 1017.298462,827.461365 
	C998.659668,827.547729 980.020203,827.484558 960.967041,827.484558 
	C960.967041,806.439270 960.967041,785.709473 960.967041,764.506958 
	C982.250305,764.506958 1003.438416,764.506958 1024.959961,764.506958 
	C1024.959961,768.167358 1024.959961,771.589111 1024.959961,776.075378 
	C1016.857178,776.075378 1008.780579,776.075378 1000.228516,776.079956 
z"/>
<path fill="#0A0A0A" opacity="1.000000" stroke="none" 
	d="
M581.473145,814.344116 
	C579.412170,817.783081 577.934875,821.107971 575.997131,824.138611 
	C575.164673,825.440491 573.419800,826.885803 572.014709,826.966797 
	C566.420166,827.289124 560.796204,827.099548 554.519226,827.099548 
	C555.914612,824.185486 556.923767,821.843018 558.126099,819.604431 
	C567.483521,802.182556 576.805908,784.740723 586.382874,767.440002 
	C587.254639,765.865234 589.711975,764.694153 591.641907,764.256348 
	C603.901855,761.475098 610.874268,766.284058 615.960938,778.134888 
	C622.901245,794.304321 632.213318,809.455261 640.483643,825.056152 
	C640.691528,825.448364 640.607727,825.995056 640.767700,827.447510 
	C634.528259,827.447510 628.434998,827.739075 622.408142,827.235413 
	C620.964722,827.114807 618.983337,824.533630 618.550903,822.765747 
	C616.766174,815.469849 612.184143,813.958313 605.290894,814.419434 
	C597.525635,814.938843 589.680603,814.265381 581.473145,814.344116 
M605.113464,803.779968 
	C606.451538,803.638672 607.789612,803.497314 609.490601,803.317688 
	C605.677917,795.414734 602.207520,788.221191 598.047241,779.597839 
	C593.823425,788.059509 590.123901,795.470764 585.978333,803.775635 
	C592.711548,803.775635 598.454102,803.775635 605.113464,803.779968 
z"/>
<path fill="#0A0909" opacity="1.000000" stroke="none" 
	d="
M447.433563,764.176270 
	C449.113647,764.829407 450.962585,765.157776 451.513336,766.183350 
	C462.272125,786.217163 472.879730,806.332153 484.050354,827.435852 
	C477.141785,827.435852 470.690277,828.050415 464.484283,827.085693 
	C462.449829,826.769470 460.321198,822.560364 459.530823,819.765198 
	C458.259369,815.268433 455.684387,814.301941 451.509979,814.399719 
	C443.197083,814.594666 434.868378,814.212097 426.562256,814.512512 
	C424.960083,814.570435 422.535248,816.356384 422.020874,817.866638 
	C419.519867,825.210083 415.199982,828.927734 407.064728,827.516602 
	C404.052216,826.994080 400.873077,827.432190 396.745758,827.432190 
	C398.419617,824.045227 399.610107,821.451782 400.956482,818.941895 
	C410.006866,802.070923 419.197144,785.273499 428.067871,768.308838 
	C429.728729,765.132568 431.641632,764.036316 435.020203,764.211975 
	C439.001434,764.418884 443.004425,764.206604 447.433563,764.176270 
M447.147369,803.802063 
	C448.395752,803.681335 449.644165,803.560669 451.661926,803.365601 
	C448.125824,795.632019 444.834625,788.434021 441.117065,780.303589 
	C435.200592,787.287781 433.288055,795.718262 428.512299,803.801819 
	C435.092407,803.801819 440.658508,803.801819 447.147369,803.802063 
z"/>
<path fill="#0A0A0A" opacity="1.000000" stroke="none" 
	d="
M283.105652,804.785278 
	C287.049500,812.201050 290.890167,819.256714 295.348480,827.446960 
	C288.210754,827.446960 281.948792,827.731384 275.749908,827.232422 
	C274.329773,827.118103 272.446472,824.496704 271.945068,822.702515 
	C270.066254,815.979980 266.019012,813.862122 259.171997,814.439270 
	C252.250580,815.022766 245.217819,814.164734 238.248871,814.394531 
	C236.619522,814.448242 233.991684,816.062622 233.627625,817.436951 
	C231.406464,825.821350 226.257858,828.855286 217.880524,827.537476 
	C215.006622,827.085388 212.001770,827.465576 208.194122,827.465576 
	C209.605896,824.861267 210.680313,822.929565 211.709015,820.973816 
	C221.145630,803.033386 230.513596,785.056213 240.118134,767.206299 
	C240.904892,765.744141 243.250488,765.070496 244.950043,764.179932 
	C245.474442,763.905151 246.258835,764.125000 246.924210,764.121033 
	C262.083893,764.031311 262.026520,764.060669 268.994415,777.717834 
	C273.562744,786.671814 278.326355,795.526184 283.105652,804.785278 
M253.503342,783.117249 
	C252.301102,782.906494 250.180420,782.246704 250.031647,782.551086 
	C246.739670,789.283447 243.665665,796.122437 240.324432,803.435181 
	C248.100632,803.435181 255.084412,803.435181 263.031525,803.435181 
	C259.686768,796.456909 256.662933,790.148193 253.503342,783.117249 
z"/>
<path fill="#0D0D0D" opacity="1.000000" stroke="none" 
	d="
M941.841553,790.267822 
	C942.263367,790.662170 942.411133,790.802002 942.421143,790.950928 
	C943.110840,801.267700 943.110046,801.280273 932.820740,801.310303 
	C924.827087,801.333679 916.829895,801.458801 908.841309,801.258850 
	C905.464111,801.174377 904.037659,802.016663 904.220032,805.689941 
	C904.508667,811.504211 904.159485,817.347717 904.345764,823.170349 
	C904.444153,826.248474 903.304871,827.343872 900.293213,827.232910 
	C896.470032,827.092041 892.634399,827.219727 888.806030,827.311646 
	C886.393127,827.369507 885.306458,826.700317 885.335693,823.888062 
	C885.527893,805.404419 885.584961,786.918396 885.501831,768.433960 
	C885.486816,765.090332 886.670593,764.124023 889.862122,764.130310 
	C907.846924,764.165833 925.832764,764.115906 943.816711,763.938416 
	C950.470093,763.872681 947.574158,768.794983 948.147888,771.810425 
	C948.837402,775.434509 946.587769,775.739258 943.627686,775.698303 
	C931.806885,775.534851 919.981873,775.677002 908.161316,775.505371 
	C905.303589,775.463867 904.423462,776.489258 904.212463,779.194397 
	C903.376282,789.913757 903.306091,789.894592 914.050842,789.913330 
	C923.201660,789.929260 932.352478,789.981506 941.841553,790.267822 
z"/>
<path fill="#0A0909" opacity="1.000000" stroke="none" 
	d="
M1060.360229,768.472107 
	C1060.359985,784.208984 1060.359985,799.490295 1060.359985,815.391907 
	C1075.161133,815.391907 1089.532593,815.391907 1103.876709,815.391907 
	C1103.876709,819.759094 1103.876709,823.488892 1103.876709,827.538818 
	C1095.888794,827.538818 1088.258545,827.545593 1080.628418,827.537292 
	C1068.976562,827.524597 1057.323730,827.413391 1045.673462,827.539734 
	C1042.441284,827.574768 1041.342407,826.607056 1041.368286,823.253357 
	C1041.504639,805.607056 1041.593262,787.955505 1041.271729,770.313599 
	C1041.177979,765.164001 1042.793701,763.413513 1047.785522,764.018616 
	C1050.573120,764.356445 1053.445068,764.160034 1056.267700,764.002441 
	C1059.225464,763.837097 1060.712646,764.926514 1060.360229,768.472107 
z"/>
<path fill="#0C0C0C" opacity="1.000000" stroke="none" 
	d="
M794.046082,791.000854 
	C794.064209,797.656982 794.324036,803.825195 794.015320,809.964844 
	C793.800781,814.231018 794.960632,815.792053 799.522522,815.652649 
	C810.659729,815.312439 821.814148,815.534363 832.961609,815.530090 
	C834.585876,815.529480 836.210144,815.530029 837.662109,815.530029 
	C837.954163,816.289062 838.159363,816.590271 838.177063,816.902039 
	C838.785095,827.626831 838.782715,827.562439 828.066711,827.540894 
	C812.768372,827.510193 797.469910,827.585754 782.171448,827.614624 
	C780.043152,827.618591 777.914917,827.615112 775.523804,827.615112 
	C775.319397,826.018066 775.056274,824.922241 775.057251,823.826660 
	C775.074524,805.524963 775.213501,787.222656 775.092468,768.922058 
	C775.068298,765.269775 776.052795,764.018921 779.846924,764.005127 
	C794.299866,763.952576 794.298096,763.825500 794.155701,778.022888 
	C794.113953,782.182129 794.081665,786.341431 794.046082,791.000854 
z"/>
<path fill="#0D0D0D" opacity="1.000000" stroke="none" 
	d="
M859.953979,827.384338 
	C849.616150,827.659973 849.765747,827.661072 849.840332,817.620178 
	C849.960083,801.496826 849.970093,785.370544 849.769714,769.248718 
	C849.722839,765.478943 850.452515,763.655273 854.646729,764.061890 
	C858.104797,764.397156 861.625793,764.219910 865.111877,764.085815 
	C868.136902,763.969482 869.211731,765.284058 869.201477,768.246582 
	C869.136963,786.865112 869.231445,805.484619 869.043640,824.101440 
	C869.032837,825.168274 867.167480,826.713867 865.869080,827.145325 
	C864.212341,827.695923 862.253967,827.338745 859.953979,827.384338 
z"/>
<path fill="#0F0F0F" opacity="1.000000" stroke="none" 
	d="
M508.324768,764.284729 
	C509.460297,765.364014 510.772583,766.446167 510.782745,767.540405 
	C510.957550,786.346680 511.023651,805.154846 510.885773,823.960938 
	C510.877869,825.038269 508.997223,826.913147 507.850677,827.026550 
	C503.559265,827.450745 499.203979,827.443909 494.888611,827.247620 
	C493.906311,827.202881 492.160736,825.752014 492.161194,824.949158 
	C492.172333,805.154846 492.369598,785.360596 492.557983,765.566528 
	C492.560669,765.283081 492.872223,765.002502 493.293457,764.293213 
	C497.991974,764.293213 502.943756,764.293213 508.324768,764.284729 
z"/>
<path fill="#080808" opacity="1.000000" stroke="none" 
	d="
M527.602905,775.063721 
	C527.603516,771.290588 527.603516,768.005859 527.603516,764.149841 
	C533.091797,764.149841 538.040771,764.152893 542.989746,764.148865 
	C547.028076,764.145569 546.262878,767.260925 546.275513,769.546265 
	C546.361694,785.187561 546.421265,800.830322 546.297607,816.471130 
	C546.211975,827.292297 546.074951,827.287109 535.089539,827.176758 
	C532.797180,827.153748 530.504456,827.173401 527.602356,827.173401 
	C527.602356,809.703552 527.602356,792.627808 527.602905,775.063721 
z"/>
<path fill="#0A0A0A" opacity="1.000000" stroke="none" 
	d="
M1114.839355,783.001099 
	C1114.858154,777.839111 1115.100464,773.163879 1114.826782,768.519104 
	C1114.611084,764.856995 1116.147949,764.044678 1119.483032,763.972229 
	C1134.220337,763.652344 1134.240845,763.567444 1134.265015,778.204102 
	C1134.290161,793.522339 1134.269897,808.840759 1134.254150,824.159058 
	C1134.253418,824.954346 1134.108276,825.749512 1133.926270,827.607361 
	C1128.387207,827.607361 1122.935181,827.607666 1117.483276,827.607300 
	C1113.960205,827.607117 1114.724243,825.009521 1114.727173,822.959473 
	C1114.745728,809.806641 1114.798706,796.653809 1114.839355,783.001099 
z"/>
<path fill="#F9F9F9" opacity="1.000000" stroke="none" 
	d="
M339.437073,629.347168 
	C342.745300,622.494995 345.652222,615.855774 349.190369,609.571899 
	C350.188965,607.798340 352.983582,606.118408 355.042267,606.006165 
	C369.958130,605.193237 384.933289,603.917175 399.815857,604.543335 
	C411.410431,605.031189 423.156830,607.046509 433.245514,614.029114 
	C443.954895,621.441345 445.066376,630.075928 436.276642,639.760864 
	C428.993744,647.785400 419.467010,651.937134 409.305511,654.614258 
	C383.378601,661.444885 356.991913,661.005676 330.544281,659.049377 
	C329.904663,659.001953 329.278748,658.769836 327.448090,658.347229 
	C331.477356,648.585754 335.376160,639.140198 339.437073,629.347168 
z"/>
<path fill="#FAFAFA" opacity="1.000000" stroke="none" 
	d="
M1141.500366,640.507935 
	C1158.483032,634.064026 1175.147827,633.020935 1191.518921,640.944092 
	C1205.050049,647.492737 1209.497192,660.938538 1202.842773,674.325378 
	C1192.254761,695.625916 1173.964600,704.927185 1151.188721,706.753601 
	C1142.684692,707.435547 1134.396606,706.385132 1126.534302,702.356323 
	C1110.104492,693.937317 1105.249390,678.919922 1114.597412,662.950806 
	C1120.731323,652.472351 1130.051147,645.424805 1141.500366,640.507935 
z"/>
<path fill="#E7E7E7" opacity="1.000000" stroke="none" 
	d="
M604.655029,803.777832 
	C598.454102,803.775635 592.711548,803.775635 585.978333,803.775635 
	C590.123901,795.470764 593.823425,788.059509 598.047241,779.597839 
	C602.207520,788.221191 605.677917,795.414734 609.490601,803.317688 
	C607.789612,803.497314 606.451538,803.638672 604.655029,803.777832 
z"/>
<path fill="#E7E7E7" opacity="1.000000" stroke="none" 
	d="
M446.685974,803.801941 
	C440.658508,803.801819 435.092407,803.801819 428.512299,803.801819 
	C433.288055,795.718262 435.200592,787.287781 441.117065,780.303589 
	C444.834625,788.434021 448.125824,795.632019 451.661926,803.365601 
	C449.644165,803.560669 448.395752,803.681335 446.685974,803.801941 
z"/>
<path fill="#E7E7E7" opacity="1.000000" stroke="none" 
	d="
M253.571228,783.478394 
	C256.662933,790.148193 259.686768,796.456909 263.031525,803.435181 
	C255.084412,803.435181 248.100632,803.435181 240.324432,803.435181 
	C243.665665,796.122437 246.739670,789.283447 250.031647,782.551086 
	C250.180420,782.246704 252.301102,782.906494 253.571228,783.478394 
z"/>
</svg>